<svg height="640pt" viewBox="-70 0 640 640" width="640pt" xmlns="http://www.w3.org/2000/svg"><path d="m334.457031 0h-262.332031c-39.472656 0-72.125 32.484375-72.125 71.957031v496.085938c0 39.472656 32.652344 71.957031 72.125 71.957031h356.058594c39.472656 0 72.117187-32.484375 72.117187-71.957031v-394.074219zm0 0" fill="#00acea"/><path d="m335.269531.488281 165.199219 173.640625h-109.972656c-30.535156 0-55.226563-24.6875-55.226563-55.222656zm0 0" fill="#00efd1"/><g fill="#083863"><path d="m383.835938 511.675781h-267.371094c-8.929688 0-16.238282 7.308594-16.238282 16.242188 0 8.9375 7.308594 16.246093 16.238282 16.246093h267.535156c8.933594 0 16.242188-7.308593 16.242188-16.246093 0-8.933594-7.308594-16.242188-16.40625-16.242188zm0 0"/><path d="m250.152344 471.390625c72.933594 0 121.828125-63.027344 121.828125-121.824219 0-58.804687-48.894531-121.828125-121.828125-121.828125-29.078125 0-54.09375 10.71875-73.257813 25.335938l.648438-41.90625c.164062-8.933594-6.984375-16.40625-15.917969-16.570313-8.933594-.160156-16.40625 6.988282-16.570312 15.917969l-1.300782 82.03125c0 4.390625 1.628906 8.609375 4.714844 11.695313 3.085938 3.085937 7.148438 4.710937 11.53125 4.710937h1.460938l78.78125-1.296875c8.9375-.160156 16.085937-7.472656 15.921874-16.566406-.164062-9.097656-7.472656-16.085938-16.570312-15.925782l-38.660156.65625c13.484375-9.097656 30.214844-15.597656 49.21875-15.597656 58.3125 0 89.339844 51.816406 89.339844 89.34375 0 37.523438-31.027344 89.339844-89.339844 89.339844-31.996094 0-53.117188-15.917969-64.972656-29.238281-15.265626-16.894531-24.203126-39.3125-24.203126-60.101563 0-8.9375-7.308593-16.246094-16.246093-16.246094-8.933594 0-16.242188 7.308594-16.242188 16.246094-.164062 58.796875 48.730469 121.824219 121.664063 121.824219zm0 0"/></g></svg>