<svg height="640pt" viewBox="-70 0 640 640" width="640pt" xmlns="http://www.w3.org/2000/svg"><path d="m334.457031 0h-262.332031c-39.472656 0-72.125 32.484375-72.125 71.957031v496.085938c0 39.472656 32.652344 71.957031 72.125 71.957031h356.058594c39.472656 0 72.117187-32.484375 72.117187-71.957031v-394.074219zm0 0" fill="#00acea"/><path d="m335.269531.488281 165.199219 173.640625h-109.972656c-30.535156 0-55.226563-24.6875-55.226563-55.222656zm0 0" fill="#00efd1"/><g fill="#083863"><path d="m383.835938 511.675781h-267.371094c-8.929688 0-16.238282 7.308594-16.238282 16.242188 0 8.9375 7.308594 16.246093 16.238282 16.246093h267.535156c8.933594 0 16.242188-7.308593 16.242188-16.246093 0-8.933594-7.308594-16.242188-16.40625-16.242188zm0 0"/><path d="m397.808594 295.472656-20.632813-1.953125c-2.433593-7.792969-5.683593-15.269531-9.417969-22.410156l12.992188-15.597656c5.363281-6.492188 4.875-15.757813-.976562-21.765625l-29.886719-30.210938c-5.84375-6.011718-15.429688-6.5-21.929688-1.136718l-15.753906 12.992187c-7.3125-3.898437-14.78125-6.984375-22.414063-9.417969l-1.953124-20.632812c-.808594-8.285156-7.796876-14.785156-16.238282-14.785156h-42.886718c-8.445313 0-15.429688 6.339843-16.246094 14.625l-1.945313 20.464843c-7.800781 2.4375-15.269531 5.683594-22.417969 9.421875l-15.589843-12.996094c-6.5-5.363281-15.917969-4.875-21.929688.976563l-30.214843 30.210937c-5.851563 5.847657-6.332032 15.433594-.976563 21.933594l12.996094 15.75c-3.898438 7.308594-6.984375 14.785156-9.421875 22.417969l-20.628906 1.949219c-8.28125.8125-14.78125 7.796875-14.78125 16.242187v42.886719c0 8.28125 6.5 15.429688 14.78125 16.242188l20.628906 1.953124c2.4375 7.796876 5.6875 15.265626 9.421875 22.410157l-12.996094 15.597656c-5.355469 6.496094-4.875 15.917969.976563 21.925781l30.214843 30.214844c6.011719 5.851562 15.429688 6.335938 21.929688.972656l15.753906-12.992187c7.3125 3.894531 14.78125 6.980469 22.414063 9.417969l2.113281 20.628906c.8125 8.289062 7.796875 14.621094 16.246093 14.621094h42.878907c8.449219 0 15.429687-6.332032 16.246093-14.78125l1.949219-20.46875c7.796875-2.4375 15.265625-5.683594 22.414063-9.417969l15.59375 12.992187c6.496094 5.363282 15.921875 4.875 21.933594-.972656l30.207031-30.214844c5.851562-5.84375 6.339843-15.429687.976562-21.765625l-12.996093-15.757812c3.902343-7.308594 6.988281-14.78125 9.421874-22.410157l20.304688-1.953124c8.285156-.8125 14.785156-7.792969 14.785156-16.242188v-42.886719c-.167968-8.28125-6.660156-15.265625-14.945312-16.078125zm-17.707032 44.179688-16.894531 1.625c-6.980469.652344-12.832031 5.851562-14.292969 12.671875-2.433593 11.535156-7.308593 22.902343-14.296874 33.625-3.894532 6.007812-3.410157 13.640625 1.140624 19.167969l10.882813 13.15625-9.257813 9.261718-13.160156-10.882812c-5.523437-4.550782-13.320312-5.039063-19.332031-.976563-10.066406 6.660157-21.605469 11.53125-33.460937 14.128907-6.980469 1.464843-12.019532 7.308593-12.671876 14.296874l-1.617187 17.054688h-13.488281l-1.621094-17.054688c-.648438-6.988281-5.851562-12.832031-12.671875-14.296874-11.53125-2.4375-22.902344-7.308594-33.621094-14.292969-6.011719-3.898438-13.648437-3.410157-19.171875 1.140625l-13.152344 10.882812-9.261718-9.261718 10.882812-13.15625c4.550782-5.527344 5.039063-13.480469.976563-19.332032-6.660157-9.90625-11.535157-21.4375-14.132813-33.460937-1.464844-6.988281-7.472656-12.019531-14.457031-12.671875l-17.214844-1.625v-13.320313l17.214844-1.621093c6.984375-.648438 12.832031-5.847657 14.292969-12.671876 2.4375-11.53125 7.308594-22.902343 14.296875-33.621093 3.894531-6.011719 3.40625-13.648438-1.136719-19.171875l-10.886719-13.15625 9.257813-9.257813 13.160156 10.882813c5.523438 4.546875 13.480469 5.035156 19.332031.972656 9.90625-6.65625 21.601563-11.53125 33.460938-14.132812 6.980469-1.460938 12.019531-7.308594 12.671875-14.292969l1.621094-17.054688h13.320312l1.625 17.054688c.648438 6.984375 5.851562 12.832031 12.671875 14.292969 11.53125 2.4375 22.898437 7.308593 33.621094 14.296874 6.011719 3.898438 13.644531 3.410157 19.164062-1.136718l13-10.722656 9.097657 9.261718-10.886719 13.15625c-4.542969 5.519532-5.03125 13.480469-.976563 19.328125 6.660156 9.910157 11.535156 21.441407 14.136719 33.464844 1.460937 6.984375 7.472656 12.019531 14.453125 12.667969l17.222656 1.628906v13.152344zm0 0"/><path d="m250.152344 246.742188c-47.59375 0-86.25 38.65625-86.25 86.25 0 47.597656 38.65625 86.253906 86.25 86.253906 47.597656 0 86.253906-38.65625 86.253906-86.253906 0-47.59375-38.65625-86.25-86.253906-86.25zm0 140.019531c-29.5625 0-53.765625-24.042969-53.765625-53.769531 0-29.726563 24.039062-53.765626 53.765625-53.765626 29.726562 0 53.769531 24.039063 53.769531 53.765626 0 29.726562-24.203125 53.769531-53.769531 53.769531zm0 0"/></g></svg>