<svg height="640pt" viewBox="-70 0 640 640" width="640pt" xmlns="http://www.w3.org/2000/svg"><path d="m334.457031 0h-262.332031c-39.472656 0-72.125 32.484375-72.125 71.957031v496.085938c0 39.472656 32.652344 71.957031 72.125 71.957031h356.058594c39.472656 0 72.117187-32.484375 72.117187-71.957031v-394.074219zm0 0" fill="#00acea"/><path d="m335.269531.488281 165.199219 173.640625h-109.972656c-30.535156 0-55.226563-24.6875-55.226563-55.222656zm0 0" fill="#00efd1"/><g fill="#083863"><path d="m383.835938 511.675781h-267.371094c-8.929688 0-16.238282 7.308594-16.238282 16.242188 0 8.9375 7.308594 16.246093 16.238282 16.246093h267.535156c8.933594 0 16.242188-7.308593 16.242188-16.246093 0-8.933594-7.308594-16.242188-16.40625-16.242188zm0 0"/><path d="m176.246094 376.039062 86.902344 39.800782c-.488282 3.085937-.8125 6.332031-.8125 9.585937 0 31.671875 25.828124 57.5 57.503906 57.5 31.671875 0 57.5-25.828125 57.5-57.5 0-31.675781-25.828125-57.507812-57.5-57.507812-16.734375 0-31.835938 7.148437-42.398438 18.683593l-83.652344-38.335937c1.300782-4.871094 2.109376-10.074219 2.109376-15.269531 0-3.574219-.320313-6.984375-.972657-10.234375l85.117188-40.769531c10.394531 9.90625 24.367187 16.078124 39.796875 16.078124 31.671875 0 57.503906-25.824218 57.503906-57.5 0-31.679687-25.832031-57.503906-57.503906-57.503906-31.675782 0-57.5 25.824219-57.5 57.503906 0 4.546876.480468 8.929688 1.457031 12.992188l-83.65625 40.125c-10.554687-11.210938-25.335937-18.195312-41.90625-18.195312-31.675781 0-57.5 25.824218-57.5 57.5 0 31.675781 25.824219 57.503906 57.5 57.503906 14.617187 0 27.9375-5.519532 38.011719-14.457032zm143.425781 24.367188c13.808594 0 25.019531 11.210938 25.019531 25.011719 0 13.808593-11.210937 25.019531-25.019531 25.019531-13.804687 0-25.015625-11.210938-25.015625-25.019531 0-13.800781 11.375-25.011719 25.015625-25.011719zm0-184.855469c13.808594 0 25.019531 11.210938 25.019531 25.015625 0 13.808594-11.210937 25.019532-25.019531 25.019532-13.804687 0-25.015625-11.210938-25.015625-25.019532 0-13.804687 11.375-25.015625 25.015625-25.015625zm-206.292969 117.441407c0-13.804688 11.210938-25.015626 25.019532-25.015626 13.804687 0 25.015624 11.210938 25.015624 25.015626 0 13.808593-11.210937 25.019531-25.015624 25.019531-13.808594 0-25.019532-11.210938-25.019532-25.019531zm0 0"/></g></svg>