<svg height="640pt" viewBox="-70 0 640 640" width="640pt" xmlns="http://www.w3.org/2000/svg"><path d="m334.457031 0h-262.332031c-39.472656 0-72.125 32.484375-72.125 71.957031v496.085938c0 39.472656 32.652344 71.957031 72.125 71.957031h356.058594c39.472656 0 72.117187-32.484375 72.117187-71.957031v-394.074219zm0 0" fill="#00acea"/><path d="m335.269531.488281 165.199219 173.640625h-109.972656c-30.535156 0-55.226563-24.6875-55.226563-55.222656zm0 0" fill="#00efd1"/><g fill="#083863"><path d="m383.835938 511.675781h-267.371094c-8.929688 0-16.238282 7.308594-16.238282 16.242188 0 8.9375 7.308594 16.246093 16.238282 16.246093h267.535156c8.933594 0 16.242188-7.308593 16.242188-16.246093 0-8.933594-7.308594-16.242188-16.40625-16.242188zm0 0"/><path d="m122.804688 264.769531h18.839843l17.378907 196.714844c.816406 8.441406 7.796874 14.453125 16.246093 14.453125h149.929688c8.441406 0 15.429687-6.171875 16.242187-14.453125l17.21875-196.714844h18.839844c8.933594 0 16.246094-7.308593 16.246094-16.246093 0-8.929688-7.3125-16.238282-16.246094-16.238282h-62.375v-10.394531c0-17.871094-14.617188-31.84375-32.488281-31.84375h-64.96875c-17.871094 0-32.492188 13.808594-32.492188 31.84375v10.394531h-62.371093c-8.9375 0-16.246094 7.308594-16.246094 16.238282 0 8.9375 7.148437 16.246093 16.246094 16.246093zm187.449218 178.683594h-120.199218l-15.921876-178.683594h151.878907zm-92.585937-220.914063h64.972656v9.746094h-64.972656zm0 0"/></g></svg>