<svg height="640pt" viewBox="-70 0 640 640" width="640pt" xmlns="http://www.w3.org/2000/svg"><path d="m334.457031 0h-262.332031c-39.472656 0-72.125 32.484375-72.125 71.957031v496.085938c0 39.472656 32.652344 71.957031 72.125 71.957031h356.058594c39.472656 0 72.117187-32.484375 72.117187-71.957031v-394.074219zm0 0" fill="#00acea"/><path d="m335.269531.488281 165.199219 173.640625h-109.972656c-30.535156 0-55.226563-24.6875-55.226563-55.222656zm0 0" fill="#00efd1"/><g fill="#083863"><path d="m383.835938 511.675781h-267.371094c-8.929688 0-16.238282 7.308594-16.238282 16.242188 0 8.9375 7.308594 16.246093 16.238282 16.246093h267.535156c8.933594 0 16.242188-7.308593 16.242188-16.246093 0-8.933594-7.308594-16.242188-16.40625-16.242188zm0 0"/><path d="m250.152344 215.71875c-98.433594 0-174.941406 103.304688-178.195313 107.695312-4.222656 5.683594-4.222656 13.480469 0 19.164063 3.253907 4.382813 79.761719 107.695313 178.195313 107.695313 98.4375 0 174.945312-103.3125 178.191406-107.695313 4.222656-5.683594 4.222656-13.480469 0-19.164063-3.246094-4.390624-79.753906-107.695312-178.191406-107.695312zm0 202.070312c-65.949219 0-123.9375-60.753906-144.242188-84.796874 20.304688-24.039063 78.292969-84.789063 144.242188-84.789063 65.949218 0 123.9375 60.75 144.246094 84.789063-20.308594 24.042968-78.132813 84.796874-144.246094 84.796874zm0 0"/><path d="m250.152344 255.023438c-42.882813 0-77.96875 34.925781-77.96875 77.96875 0 43.046874 34.921875 77.972656 77.96875 77.972656 42.882812 0 77.96875-34.925782 77.96875-77.972656 0-43.042969-35.085938-77.96875-77.96875-77.96875zm0 123.453124c-25.015625 0-45.480469-20.304687-45.480469-45.484374 0-25.175782 20.304687-45.476563 45.480469-45.476563 25.011718 0 45.480468 20.300781 45.480468 45.476563 0 25.179687-20.46875 45.484374-45.480468 45.484374zm0 0"/></g></svg>