<svg height="640pt" viewBox="-70 0 640 640" width="640pt" xmlns="http://www.w3.org/2000/svg"><path d="m334.457031 0h-262.332031c-39.472656 0-72.125 32.484375-72.125 71.957031v496.085938c0 39.472656 32.652344 71.957031 72.125 71.957031h356.058594c39.472656 0 72.117187-32.484375 72.117187-71.957031v-394.074219zm0 0" fill="#00acea"/><path d="m335.269531.488281 165.199219 173.640625h-109.972656c-30.535156 0-55.226563-24.6875-55.226563-55.222656zm0 0" fill="#00efd1"/><g fill="#083863"><path d="m383.835938 511.675781h-267.371094c-8.929688 0-16.238282 7.308594-16.238282 16.242188 0 8.9375 7.308594 16.246093 16.238282 16.246093h267.535156c8.933594 0 16.242188-7.308593 16.242188-16.246093 0-8.933594-7.308594-16.242188-16.40625-16.242188zm0 0"/><path d="m139.699219 462.945312c1.621093 0 3.246093-.328124 4.871093-.816406l92.261719-29.074218c2.433594-.8125 4.710938-2.113282 6.660157-4.0625l144.890624-145.378907c6.339844-6.332031 6.339844-16.566406 0-22.90625l-62.699218-62.699219c-6.332032-6.332031-16.566406-6.332031-22.902344 0l-145.378906 144.898438c-1.785156 1.785156-3.25 4.054688-4.0625 6.660156l-29.238282 92.257813c-1.785156 5.851562-.328124 12.023437 4.0625 16.40625 3.085938 3.085937 7.308594 4.714843 11.535157 4.714843zm36.546875-78.132812 25.339844 25.339844-37.035157 11.699218zm137.910156-152.367188 39.792969 39.800782-121.992188 122.3125-40.121093-40.121094zm0 0"/></g></svg>