<?xml version="1.0" encoding="iso-8859-1"?>
<!-- Generator: Adobe Illustrator 19.0.0, SVG Export Plug-In . SVG Version: 6.00 Build 0)  -->
<svg version="1.1" id="Capa_1" xmlns="http://www.w3.org/2000/svg" xmlns:xlink="http://www.w3.org/1999/xlink" x="0px" y="0px"
	 viewBox="0 0 512.293 512.293" style="enable-background:new 0 0 512.293 512.293;" xml:space="preserve">
<path style="fill:#455A64;" d="M356.132,337.275c-1.888-5.58-7.942-8.573-13.523-6.685c-0.253,0.086-0.503,0.181-0.749,0.285
	c-4.822,2.141-10.485,0.369-13.227-4.139c-2.615-4.647-1.288-10.519,3.072-13.589c4.715-3.532,5.674-10.217,2.142-14.932
	c-0.165-0.22-0.339-0.434-0.52-0.641c-16.813-19.459-39.621-32.773-64.832-37.845c-2.941-0.583-5.992,0.098-8.405,1.877
	c-2.417,1.79-3.967,4.517-4.267,7.509c-0.259,5.685-5.077,10.083-10.762,9.825c-5.322-0.242-9.582-4.502-9.825-9.825
	c-0.3-2.993-1.849-5.72-4.267-7.509c-2.413-1.779-5.464-2.461-8.405-1.877c-25.211,5.072-48.019,18.386-64.832,37.845
	c-3.886,4.427-3.447,11.167,0.98,15.053c0.207,0.182,0.421,0.355,0.641,0.52c4.698,3.169,5.938,9.547,2.768,14.245
	c-2.861,4.242-8.41,5.727-13.008,3.483c-5.423-2.302-11.685,0.228-13.987,5.651c-0.104,0.246-0.2,0.496-0.285,0.749
	c-8.835,24.193-8.835,50.73,0,74.923c1.892,5.579,7.949,8.567,13.528,6.675c0.244-0.083,0.485-0.174,0.723-0.275
	c5.102-2.467,11.238-0.33,13.705,4.772c2.209,4.57,0.745,10.068-3.443,12.935c-4.715,3.532-5.674,10.217-2.142,14.932
	c0.165,0.22,0.339,0.434,0.52,0.641c16.813,19.459,39.621,32.773,64.832,37.845c2.941,0.603,6-0.08,8.405-1.877
	c2.417-1.79,3.967-4.517,4.267-7.509c0.449-5.685,5.421-9.93,11.106-9.481c5.062,0.399,9.082,4.419,9.481,9.481
	c0.56,5.462,5.176,9.607,10.667,9.579c0.717,0.005,1.432-0.066,2.133-0.213c25.211-5.072,48.019-18.386,64.832-37.845
	c3.886-4.427,3.447-11.167-0.98-15.053c-0.207-0.182-0.421-0.355-0.641-0.52c-4.677-3.201-5.874-9.586-2.673-14.263
	c2.867-4.189,8.365-5.653,12.935-3.443c5.427,2.292,11.684-0.25,13.976-5.677c0.1-0.237,0.192-0.479,0.275-0.723
	c8.835-24.193,8.835-50.73,0-74.923L356.132,337.275z"/>
<path style="fill:#BBDEFB;" d="M402.148,150.139C384.338,63.587,299.735,7.861,213.183,25.671
	C139.07,40.922,85.774,106.005,85.434,181.669c0,3.605,0.149,7.296,0.469,11.2C33.178,198.45-5.04,245.716,0.541,298.441
	c5.173,48.87,46.416,85.943,95.559,85.895h11.52c-0.256-3.2-0.853-6.4-0.853-9.6c0.118-15.098,2.743-30.071,7.765-44.309
	c2.863-8.443,9.118-15.309,17.259-18.944c0.789-0.363,1.579-0.683,2.389-0.981c-0.149-0.832-0.277-1.685-0.384-2.539
	c-0.908-8.883,1.912-17.745,7.787-24.469c19.926-23.014,46.947-38.739,76.8-44.693c8.814-1.766,17.963,0.271,25.195,5.611
	c0.661,0.491,1.301,1.024,1.92,1.536c0.597-0.512,1.216-1.024,1.856-1.493c7.322-5.481,16.66-7.519,25.6-5.589
	c29.712,6.002,56.591,21.699,76.416,44.629c5.867,6.704,8.687,15.542,7.787,24.405c0,0.896-0.213,1.771-0.384,2.645
	c0.853,0.299,1.685,0.619,2.517,1.003c8.055,3.663,14.233,10.498,17.067,18.88l0,0c5.016,14.239,7.633,29.213,7.744,44.309
	c0,3.179-0.597,6.4-0.853,9.6h11.52c64.73,0.177,117.348-52.154,117.525-116.885C512.462,205.339,464.148,153.881,402.148,150.139
	L402.148,150.139z"/>
<circle style="fill:#FAFAFA;" cx="245.434" cy="374.736" r="53.333"/>
<g>
</g>
<g>
</g>
<g>
</g>
<g>
</g>
<g>
</g>
<g>
</g>
<g>
</g>
<g>
</g>
<g>
</g>
<g>
</g>
<g>
</g>
<g>
</g>
<g>
</g>
<g>
</g>
<g>
</g>
</svg>
