<?xml version="1.0" encoding="iso-8859-1"?>
<!-- Generator: Adobe Illustrator 19.0.0, SVG Export Plug-In . SVG Version: 6.00 Build 0)  -->
<svg version="1.1" id="Capa_1" xmlns="http://www.w3.org/2000/svg" xmlns:xlink="http://www.w3.org/1999/xlink" x="0px" y="0px"
	 viewBox="0 0 512.293 512.293" style="enable-background:new 0 0 512.293 512.293;" xml:space="preserve">
<g>
	<path style="fill:#2196F3;" d="M202.767,458.47c-41.237,0-74.667-33.429-74.667-74.667s33.429-74.667,74.667-74.667h42.667
		c5.891,0,10.667,4.776,10.667,10.667c0,5.891-4.776,10.667-10.667,10.667h-42.667c-29.455,0-53.333,23.878-53.333,53.333
		s23.878,53.333,53.333,53.333c5.891,0,10.667,4.776,10.667,10.667C213.434,453.694,208.658,458.47,202.767,458.47z"/>
	<path style="fill:#2196F3;" d="M288.1,458.47h-42.667c-5.891,0-10.667-4.776-10.667-10.667c0-5.891,4.776-10.667,10.667-10.667
		H288.1c29.455,0,53.333-23.878,53.333-53.333S317.556,330.47,288.1,330.47c-5.891,0-10.667-4.776-10.667-10.667
		c0-5.891,4.776-10.667,10.667-10.667c41.237,0,74.667,33.429,74.667,74.667S329.338,458.47,288.1,458.47L288.1,458.47z"/>
	<path style="fill:#2196F3;" d="M213.434,362.47c-5.891,0.011-10.675-4.757-10.686-10.648c-0.005-2.84,1.123-5.565,3.134-7.571
		l24.469-24.448l-24.469-24.448c-4.092-4.237-3.975-10.99,0.262-15.083c4.134-3.992,10.687-3.992,14.82,0l32,32
		c4.164,4.165,4.164,10.917,0,15.083l-32,32C218.965,361.349,216.257,362.469,213.434,362.47z"/>
</g>
<path style="fill:#BBDEFB;" d="M402.148,149.606C384.338,63.054,299.735,7.328,213.183,25.138
	C139.07,40.389,85.774,105.472,85.434,181.136c0,3.605,0.149,7.296,0.469,11.2C33.178,197.917-5.04,245.183,0.541,297.908
	c5.173,48.87,46.416,85.943,95.559,85.895h10.667c0.067-44.935,31.294-83.812,75.157-93.568c-0.873-9.252,2.382-18.417,8.896-25.045
	c12.662-12.085,32.586-12.085,45.248,0l30.848,30.848c5.803-5.265,13.348-8.198,21.184-8.235c53.019,0,96,42.981,96,96h10.667
	c64.73,0.177,117.348-52.154,117.525-116.885C512.462,204.807,464.148,153.348,402.148,149.606L402.148,149.606z"/>
<path style="fill:#2196F3;" d="M277.434,490.47c-2.831,0.005-5.548-1.115-7.552-3.115l-32-32c-4.164-4.165-4.164-10.917,0-15.083
	l32-32c4.237-4.093,10.99-3.975,15.083,0.262c3.993,4.134,3.993,10.687,0,14.821l-24.448,24.448l24.448,24.448
	c4.171,4.16,4.179,10.914,0.019,15.085C282.983,489.342,280.267,490.469,277.434,490.47z"/>
<g>
</g>
<g>
</g>
<g>
</g>
<g>
</g>
<g>
</g>
<g>
</g>
<g>
</g>
<g>
</g>
<g>
</g>
<g>
</g>
<g>
</g>
<g>
</g>
<g>
</g>
<g>
</g>
<g>
</g>
</svg>
