<?xml version="1.0" encoding="utf-8"?>
<!-- Generator: Adobe Illustrator 16.0.0, SVG Export Plug-In . SVG Version: 6.00 Build 0)  -->
<!DOCTYPE svg PUBLIC "-//W3C//DTD SVG 1.1//EN" "http://www.w3.org/Graphics/SVG/1.1/DTD/svg11.dtd">
<svg version="1.1" id="Layer_1" xmlns="http://www.w3.org/2000/svg" xmlns:xlink="http://www.w3.org/1999/xlink" x="0px" y="0px"
	 width="1000px" height="1000px" viewBox="0 0 1000 1000" enable-background="new 0 0 1000 1000" xml:space="preserve">
<path fill="#BDDEF6" d="M785.782,279.684c-34.8-169.118-200.111-278.005-369.23-243.206
	c-144.814,29.8-248.953,156.969-249.617,304.813c0,7.044,0.292,14.256,0.916,21.884C64.828,374.082-9.847,466.437,1.058,569.46
	c10.108,95.489,90.695,167.929,186.718,167.835h21.884c-0.5-6.92-1.042-13.799-1.042-20.843
	c0-149.641,121.307-270.949,270.951-270.949s270.949,121.309,270.949,270.949c0,7.044-0.541,13.922-1.043,20.843h21.885
	c126.481,0.347,229.296-101.908,229.641-228.39C1001.332,387.544,906.926,286.995,785.782,279.684L785.782,279.684z"/>
<circle fill="#F0801A" cx="479.545" cy="710.346" r="229.264"/>
<path fill="#FFFFFF" d="M503.886,626.271L365.743,764.418c-1.223,1.223-2.041,2.771-2.391,4.449l-12.344,61.739
	c-0.574,2.864,0.315,5.834,2.39,7.893c1.662,1.659,3.896,2.551,6.182,2.551l1.715-0.174l61.718-12.344
	c1.711-0.329,3.248-1.173,4.468-2.397l138.143-138.139L503.886,626.271z"/>
<path fill="#FFFFFF" d="M606.305,588.163c-17.023-17.027-44.713-17.027-61.714,0l-24.172,24.165l61.724,61.719l24.162-24.167
	c8.244-8.22,12.78-19.185,12.78-30.85C619.087,607.365,614.55,596.4,606.305,588.163z"/>
<g>
	<path fill="#FFFFFF" d="M532.843,661.321L353.991,840.168c1.64,1.634,3.842,2.516,6.096,2.516l1.69-0.176l60.863-12.171
		c1.69-0.324,3.206-1.156,4.41-2.36l136.232-136.229L532.843,661.321z"/>
	<path fill="#FFFFFF" d="M605.367,587.877l-54.253,54.25l30.438,30.442l23.83-23.828c8.111-8.106,12.585-18.923,12.585-30.428
		C617.969,606.813,613.494,596.004,605.367,587.877L605.367,587.877z"/>
</g>
</svg>
