<?xml version="1.0" encoding="utf-8"?>
<!-- Generator: Adobe Illustrator 16.0.0, SVG Export Plug-In . SVG Version: 6.00 Build 0)  -->
<!DOCTYPE svg PUBLIC "-//W3C//DTD SVG 1.1//EN" "http://www.w3.org/Graphics/SVG/1.1/DTD/svg11.dtd">
<svg version="1.1" id="Layer_1" xmlns="http://www.w3.org/2000/svg" xmlns:xlink="http://www.w3.org/1999/xlink" x="0px" y="0px"
	 width="1000px" height="1000px" viewBox="0 0 1000 1000" enable-background="new 0 0 1000 1000" xml:space="preserve">
<path fill="#BDDEF6" d="M781.857,283.437C747.231,115.162,582.746,6.818,414.472,41.446
	c-144.091,29.65-247.709,156.184-248.37,303.29c0,7.009,0.29,14.185,0.912,21.775C64.504,377.363-9.798,469.257,1.052,571.765
	c10.058,95.014,90.242,167.091,185.785,166.997h21.775c-0.498-6.884-1.037-13.729-1.037-20.739
	c0-148.892,120.701-269.595,269.597-269.595c148.896,0,269.596,120.704,269.596,269.595c0,7.011-0.538,13.854-1.038,20.739h21.775
	C893.356,739.106,995.656,637.363,996,511.514C996.33,390.757,902.396,290.711,781.857,283.437L781.857,283.437z"/>
<circle fill="#0199C4" cx="477.174" cy="718.022" r="228.118"/>
<g>
	<path fill="#FBFBFB" d="M477.174,863.189c-11.454,0-20.739-9.284-20.739-20.738V593.594c0-11.452,9.287-20.738,20.739-20.738
		c11.453,0,20.739,9.286,20.739,20.738v248.857C497.909,853.905,488.627,863.189,477.174,863.189z"/>
	<path fill="#FBFBFB" d="M477.174,863.189c-5.504,0.012-10.787-2.168-14.683-6.055l-82.953-82.956
		c-7.958-8.237-7.729-21.366,0.509-29.324c8.037-7.764,20.778-7.764,28.816,0l68.313,68.271l68.272-68.271
		c8.237-7.958,21.366-7.728,29.324,0.509c7.764,8.037,7.764,20.778,0,28.814l-82.954,82.955
		C487.927,861.011,482.663,863.188,477.174,863.189z"/>
</g>
</svg>
