<svg height="512pt" viewBox="0 0 512 512" width="512pt" xmlns="http://www.w3.org/2000/svg"><path d="m416 512h-320c-53.023438 0-96-42.976562-96-96v-320c0-53.023438 42.976562-96 96-96h320c53.023438 0 96 42.976562 96 96v320c0 53.023438-42.976562 96-96 96zm0 0" fill="#e3f8fa"/><path d="m256 128c-70.574219 0-128 57.425781-128 128s57.425781 128 128 128 128-57.425781 128-128-57.425781-128-128-128zm0 53.328125c5.886719 0 10.671875 4.769531 10.671875 10.671875s-4.785156 10.671875-10.671875 10.671875-10.671875-4.769531-10.671875-10.671875 4.785156-10.671875 10.671875-10.671875zm24 149.34375h-48c-5.886719 0-10.671875-4.785156-10.671875-10.671875s4.769531-10.671875 10.671875-10.671875h13.328125v-64h-8c-5.886719 0-10.671875-4.785156-10.671875-10.671875s4.785156-10.65625 10.671875-10.65625h18.671875c5.886719 0 10.671875 4.785156 10.671875 10.671875v74.671875h13.328125c5.886719 0 10.671875 4.785156 10.671875 10.671875 0 5.871094-4.785156 10.65625-10.671875 10.65625zm0 0" fill="#26c6da"/></svg>