<svg height="512pt" viewBox="0 0 512 512" width="512pt" xmlns="http://www.w3.org/2000/svg"><path d="m416 512h-320c-53.023438 0-96-42.976562-96-96v-320c0-53.023438 42.976562-96 96-96h320c53.023438 0 96 42.976562 96 96v320c0 53.023438-42.976562 96-96 96zm0 0" fill="#fff9dd"/><path d="m256 128c-70.574219 0-128 57.425781-128 128s57.425781 128 128 128 128-57.425781 128-128-57.425781-128-128-128zm0 202.671875c-5.886719 0-10.671875-4.769531-10.671875-10.671875 0-5.886719 4.769531-10.671875 10.671875-10.671875 5.886719 0 10.671875 4.769531 10.671875 10.671875 0 5.886719-4.785156 10.671875-10.671875 10.671875zm10.671875-53.34375c0 5.902344-4.785156 10.671875-10.671875 10.671875s-10.671875-4.785156-10.671875-10.671875v-85.328125c0-5.886719 4.785156-10.671875 10.671875-10.671875s10.671875 4.785156 10.671875 10.671875zm0 0" fill="#ffd200"/></svg>