<svg height="512" viewBox="0 0 128 128" width="512" xmlns="http://www.w3.org/2000/svg"><g id="Circle_Grid" data-name="Circle Grid"><circle cx="64" cy="64" fill="#220f7c" r="64"/></g><g id="icon"><path d="m105 65.841a14.873 14.873 0 0 1 -14.87 14.87h-52.26a14.875 14.875 0 0 1 0-29.75 14.51 14.51 0 0 1 2.65.24 14.873 14.873 0 0 1 27.71-10.45 11.922 11.922 0 0 1 21.31 10.23 5.826 5.826 0 0 1 .59-.02 14.875 14.875 0 0 1 14.87 14.88z" fill="#eeefee"/><path d="m64.003 55.838 14.347 18.434-7.747.006v21.311h-13.148l.007-21.317-7.812.006z" fill="#f6c863"/></g></svg>
