<svg id="Layer_1" data-name="Layer 1" xmlns="http://www.w3.org/2000/svg" xmlns:xlink="http://www.w3.org/1999/xlink" viewBox="0 0 1213.68031 998.75629"><defs><style>.cls-1{fill:none;}.cls-2{fill:url(#Áåçûìÿííûé_ãðàäèåíò_254);}.cls-3{fill:url(#Áåçûìÿííûé_ãðàäèåíò_3);}.cls-4{fill:url(#Áåçûìÿííûé_ãðàäèåíò_24);}.cls-5{fill:#24126a;}.cls-6{opacity:0.51;}.cls-7{fill:#453c9e;}.cls-8{fill:url(#Áåçûìÿííûé_ãðàäèåíò_24-2);}.cls-9{fill:url(#Áåçûìÿííûé_ãðàäèåíò_3-2);}.cls-10{fill:#2842a2;}.cls-11{fill:#adb1f2;}.cls-12{fill:#9198db;}.cls-13{fill:url(#Áåçûìÿííûé_ãðàäèåíò_3-3);}.cls-14{opacity:0.11;}.cls-15{clip-path:url(#clip-path);}.cls-16{fill:url(#Áåçûìÿííûé_ãðàäèåíò_3-4);}.cls-17{fill:url(#Áåçûìÿííûé_ãðàäèåíò_3-5);}.cls-18{fill:#fff;opacity:0.3;}.cls-19{fill:url(#Áåçûìÿííûé_ãðàäèåíò_10);}.cls-20{fill:url(#Áåçûìÿííûé_ãðàäèåíò_27);}.cls-21{fill:#5351af;}.cls-22,.cls-23,.cls-24,.cls-25,.cls-26,.cls-27,.cls-28,.cls-29,.cls-30,.cls-31{opacity:0.48;}.cls-22{fill:url(#Áåçûìÿííûé_ãðàäèåíò_254-2);}.cls-23{fill:url(#Áåçûìÿííûé_ãðàäèåíò_254-3);}.cls-24{fill:url(#Áåçûìÿííûé_ãðàäèåíò_254-4);}.cls-25{fill:url(#Áåçûìÿííûé_ãðàäèåíò_254-5);}.cls-26{fill:url(#Áåçûìÿííûé_ãðàäèåíò_254-6);}.cls-27{fill:url(#Áåçûìÿííûé_ãðàäèåíò_254-7);}.cls-28{fill:url(#Áåçûìÿííûé_ãðàäèåíò_254-8);}.cls-29{fill:url(#Áåçûìÿííûé_ãðàäèåíò_254-9);}.cls-30{fill:url(#Áåçûìÿííûé_ãðàäèåíò_254-10);}.cls-31{fill:url(#Áåçûìÿííûé_ãðàäèåíò_254-11);}</style><linearGradient id="Áåçûìÿííûé_ãðàäèåíò_254" x1="130.76308" y1="763.30376" x2="945.20189" y2="763.30376" gradientUnits="userSpaceOnUse"><stop offset="0" stop-color="#42e8e0"/><stop offset="0.15073" stop-color="#43e3e0"/><stop offset="0.32849" stop-color="#45d5df"/><stop offset="0.5199" stop-color="#49bddd"/><stop offset="0.72093" stop-color="#4e9cdb"/><stop offset="0.92742" stop-color="#5472d8"/><stop offset="1" stop-color="#5761d7"/></linearGradient><linearGradient id="Áåçûìÿííûé_ãðàäèåíò_3" x1="19" y1="369.56106" x2="640.45767" y2="369.56106" gradientUnits="userSpaceOnUse"><stop offset="0" stop-color="#c0bff6"/><stop offset="0.29376" stop-color="#c5c4f7"/><stop offset="0.63992" stop-color="#d3d2f9"/><stop offset="1" stop-color="#e9e9fd"/></linearGradient><linearGradient id="Áåçûìÿííûé_ãðàäèåíò_24" x1="19.004" y1="528.93681" x2="125.71437" y2="528.93681" gradientUnits="userSpaceOnUse"><stop offset="0" stop-color="#5761d7"/><stop offset="0.17789" stop-color="#5c66d9"/><stop offset="0.3876" stop-color="#6a73df"/><stop offset="0.6134" stop-color="#8289e8"/><stop offset="0.84896" stop-color="#a3a7f5"/><stop offset="1" stop-color="#bcbeff"/></linearGradient><linearGradient id="Áåçûìÿííûé_ãðàäèåíò_24-2" x1="102.26107" y1="708.09378" x2="979.96253" y2="708.09378" xlink:href="#Áåçûìÿííûé_ãðàäèåíò_24"/><linearGradient id="Áåçûìÿííûé_ãðàäèåíò_3-2" x1="397.17164" y1="678.82791" x2="1275.34085" y2="678.82791" xlink:href="#Áåçûìÿííûé_ãðàäèåíò_3"/><linearGradient id="Áåçûìÿííûé_ãðàäèåíò_3-3" x1="545.88869" y1="728.68029" x2="770.67516" y2="728.68029" xlink:href="#Áåçûìÿííûé_ãðàäèåíò_3"/><clipPath id="clip-path" transform="translate(233.43505 -1.24371)"><polygon id="SVGID" class="cls-1" points="565.466 32.931 46.915 332.317 111.22 711.415 629.423 412.23 565.466 32.931"/></clipPath><linearGradient id="Áåçûìÿííûé_ãðàäèåíò_3-4" x1="61.66057" y1="484.18463" x2="939.82987" y2="484.18463" xlink:href="#Áåçûìÿííûé_ãðàäèåíò_3"/><linearGradient id="Áåçûìÿííûé_ãðàäèåíò_3-5" x1="3.86244" y1="419.72064" x2="228.64891" y2="419.72064" xlink:href="#Áåçûìÿííûé_ãðàäèåíò_3"/><linearGradient id="Áåçûìÿííûé_ãðàäèåíò_10" x1="231.84296" y1="258.50429" x2="655.80515" y2="827.06744" gradientUnits="userSpaceOnUse"><stop offset="0" stop-color="#bcbeff"/><stop offset="0.48387" stop-color="#5761d7"/><stop offset="0.57569" stop-color="#5c66d9"/><stop offset="0.68392" stop-color="#6a73df"/><stop offset="0.80046" stop-color="#8289e8"/><stop offset="0.92204" stop-color="#a3a7f5"/><stop offset="1" stop-color="#bcbeff"/></linearGradient><linearGradient id="Áåçûìÿííûé_ãðàäèåíò_27" x1="-392.14708" y1="1932.06809" x2="7.89028" y2="2185.41585" gradientTransform="matrix(0.866, 0.5, 0, 1.1547, 422.032, -1648.1102)" gradientUnits="userSpaceOnUse"><stop offset="0" stop-color="#5761d7"/><stop offset="1" stop-color="#5761d7"/></linearGradient><linearGradient id="Áåçûìÿííûé_ãðàäèåíò_254-2" x1="441.56756" y1="437.79518" x2="821.34574" y2="437.79518" xlink:href="#Áåçûìÿííûé_ãðàäèåíò_254"/><linearGradient id="Áåçûìÿííûé_ãðàäèåíò_254-3" x1="463.03989" y1="453.49042" x2="855.67809" y2="453.49042" xlink:href="#Áåçûìÿííûé_ãðàäèåíò_254"/><linearGradient id="Áåçûìÿííûé_ãðàäèåíò_254-4" x1="466.35909" y1="475.43468" x2="907.15018" y2="475.43468" xlink:href="#Áåçûìÿííûé_ãðàäèåíò_254"/><linearGradient id="Áåçûìÿííûé_ãðàäèåíò_254-5" x1="469.68036" y1="502.71662" x2="955.32874" y2="502.71662" xlink:href="#Áåçûìÿííûé_ãðàäèåíò_254"/><linearGradient id="Áåçûìÿííûé_ãðàäèåíò_254-6" x1="472.86628" y1="534.20228" x2="998.21233" y2="534.20228" xlink:href="#Áåçûìÿííûé_ãðàäèåíò_254"/><linearGradient id="Áåçûìÿííûé_ãðàäèåíò_254-7" x1="475.78385" y1="568.58315" x2="1034.01893" y2="568.58315" xlink:href="#Áåçûìÿííûé_ãðàäèåíò_254"/><linearGradient id="Áåçûìÿííûé_ãðàäèåíò_254-8" x1="478.31249" y1="604.43086" x2="1061.26029" y2="604.43086" xlink:href="#Áåçûìÿííûé_ãðàäèåíò_254"/><linearGradient id="Áåçûìÿííûé_ãðàäèåíò_254-9" x1="480.34672" y1="640.25558" x2="1078.80459" y2="640.25558" xlink:href="#Áåçûìÿííûé_ãðàäèåíò_254"/><linearGradient id="Áåçûìÿííûé_ãðàäèåíò_254-10" x1="481.80222" y1="674.56877" x2="1085.92251" y2="674.56877" xlink:href="#Áåçûìÿííûé_ãðàäèåíò_254"/><linearGradient id="Áåçûìÿííûé_ãðàäèåíò_254-11" x1="389.97385" y1="429.00151" x2="818.43954" y2="429.00151" xlink:href="#Áåçûìÿííûé_ãðàäèåíò_254"/></defs><path class="cls-2" d="M436.2441,1000a43.03525,43.03525,0,0,1-21.52685-5.74884L135.03335,832.77383a8.53221,8.53221,0,0,1,0-14.783L639.72351,526.60751l.9926.57387L940.93426,700.51319a8.53462,8.53462,0,0,1,0,14.78277l-483.163,278.9552A43.0368,43.0368,0,0,1,436.2441,1000ZM639.72351,531.19305l-502.705,290.23557a4.56271,4.56271,0,0,0,0,7.90714l279.6839,161.47758a39.19613,39.19613,0,0,0,39.08359,0l483.163-278.9552a4.56534,4.56534,0,0,0,0-7.90714Z" transform="translate(233.43505 -1.24371)"/><path class="cls-3" d="M640.34527,408.21089,573.0331,8.85719l5.41242-2.279-8.13266-4.66252.01324.04738c-1.57757-1.05083-3.80945-.9865-6.26764.43251L26.09734,312.98778c-4.41743,2.5503-7.76129,9.09163-6.98494,13.66471l67.84711,402.5284a5.04685,5.04685,0,0,0,2.83432,4.09717l-.00821.00265,7.95849,4.59769L99.111,730.449l-.45369.1379,534.703-308.71105C637.77776,419.32558,641.12161,412.78425,640.34527,408.21089Z" transform="translate(233.43505 -1.24371)"/><path class="cls-4" d="M29.095,323.90817l-8.8444-3.91294a12.1673,12.1673,0,0,0-1.13818,6.65753L86.95951,729.18089a5.04717,5.04717,0,0,0,2.83432,4.09743l-.00821.00239,7.95849,4.59769L99.111,730.449l-.45369.1379,27.05708-15.62157Z" transform="translate(233.43505 -1.24371)"/><path class="cls-5" d="M641.80028,426.71736,103.83916,737.30958c-4.1538,2.39811-7.70967,1.013-8.43943-3.28695L27.55235,331.49423c-.77607-4.57334,2.56751-11.1144,6.985-13.665L572.49869,7.23727c4.15354-2.39811,7.70941-1.01295,8.43916,3.287l67.84738,402.52841C649.56131,417.62572,646.21772,424.16705,641.80028,426.71736Z" transform="translate(233.43505 -1.24371)"/><g class="cls-6"><polygon class="cls-7" points="798.901 31.687 280.35 331.073 344.655 710.171 862.858 410.986 798.901 31.687"/></g><path class="cls-8" d="M979.96253,617.28986l-29.358,15.33228L656.21963,462.65879c-4.92512-2.8436-13.52813-2.48678-19.2153.79672L129.27287,756.59476c-4.85922-2.7176-27.0118-13.37117-27.0118-13.37117L113.00756,771.224l.04314-.03414a6.40065,6.40065,0,0,0,3.00425,3.33353l310.047,179.00494c4.92512,2.84411,13.52813,2.48731,19.2153-.79619L964.88675,652.7583a9.28917,9.28917,0,0,0,4.35868-4.63423l.0405.02647Z" transform="translate(233.43505 -1.24371)"/><path class="cls-9" d="M975.42386,622.11652,442.93366,929.5499c-5.82851,3.365-14.6454,3.73057-19.69307.81631L105.48369,746.90915c-5.04767-2.91425-4.41452-8.0048,1.414-11.36984l532.4902-307.43338c5.82825-3.365,14.64513-3.73057,19.6928-.81631l317.7569,183.45706C981.88525,613.66094,981.25211,618.75149,975.42386,622.11652Z" transform="translate(233.43505 -1.24371)"/><path class="cls-10" d="M282.32,863.04742V857.207c0-.55347.33643-.80784.75173-.5683L303.66794,868.53a1.80016,1.80016,0,0,1,.75173,1.43648v5.84016c0,.55347-.33643.80811-.75173.5683l-20.59619-11.89128A1.79966,1.79966,0,0,1,282.32,863.04742Z" transform="translate(233.43505 -1.24371)"/><path class="cls-10" d="M313.11982,880.82968v-5.84042c0-.55347.33642-.80784.75173-.5683l20.59619,11.89128a1.80016,1.80016,0,0,1,.75173,1.43648v5.84016c0,.55347-.33643.80811-.75173.56829L313.87155,882.2659A1.8,1.8,0,0,1,313.11982,880.82968Z" transform="translate(233.43505 -1.24371)"/><path class="cls-11" d="M188.32586,729.72668l442.5-255.47756a9.52613,9.52613,0,0,1,9.5334.00449l157.57312,91.16673a3.39751,3.39751,0,0,1-.00264,5.883L355.63646,826.66158a9.5268,9.5268,0,0,1-9.52414.00105L188.32639,735.61158A3.39745,3.39745,0,0,1,188.32586,729.72668Z" transform="translate(233.43505 -1.24371)"/><path class="cls-12" d="M188.32666,735.61158l1.58444.91451L630.8259,481.96356a9.5261,9.5261,0,0,1,9.5334.0045l155.98735,90.2493,1.58313-.91425a3.39729,3.39729,0,0,0,.00264-5.88277L640.3593,474.25361a9.52613,9.52613,0,0,0-9.5334-.00449l-442.5,255.47756A3.39745,3.39745,0,0,0,188.32666,735.61158Z" transform="translate(233.43505 -1.24371)"/><polygon class="cls-5" points="885.686 496.099 501.313 718.017 484.222 708.15 868.595 486.232 885.686 496.099"/><polygon class="cls-5" points="927.585 520.29 567.058 728.441 549.967 718.574 910.495 510.423 927.585 520.29"/><polygon class="cls-5" points="954.875 536.046 530.393 781.121 513.302 771.254 937.785 526.179 954.875 536.046"/><polygon class="cls-5" points="982.165 551.802 557.683 796.877 540.592 787.009 965.075 541.935 982.165 551.802"/><polygon class="cls-5" points="1009.455 567.558 584.973 812.633 567.882 802.765 992.365 557.69 1009.455 567.558"/><polygon class="cls-5" points="478.088 731.426 460.997 741.293 443.907 731.426 460.997 721.559 478.088 731.426"/><polygon class="cls-5" points="538.37 745.004 502.897 765.484 485.806 755.617 521.279 735.137 538.37 745.004"/><path class="cls-13" d="M647.86358,791.55127l119.314-68.886c4.66334-2.69245,4.66334-7.05747.00027-9.74992l-81.59015-47.10613c-4.66337-2.69219-12.224-2.69219-16.88763.00026L549.38633,734.69522c-4.66334,2.69244-4.6636,7.05774-.00026,9.74992L630.976,791.55127C635.63932,794.24372,643.20024,794.24345,647.86358,791.55127Z" transform="translate(233.43505 -1.24371)"/><path class="cls-12" d="M549.38633,738.68465l119.31378-68.88576c4.66361-2.69245,12.22426-2.69245,16.88763-.00027l81.59015,47.10614a7.31115,7.31115,0,0,1,2.93066,2.8801c1.23347-2.35469.293-5.00823-2.93066-6.86954l-81.59015-47.10613c-4.66337-2.69245-12.224-2.69219-16.88763.00026L549.38633,734.69522c-3.22394,1.86131-4.16492,4.51485-2.93117,6.86981A7.31145,7.31145,0,0,1,549.38633,738.68465Z" transform="translate(233.43505 -1.24371)"/><g class="cls-14"><g class="cls-15"><path class="cls-16" d="M639.91277,427.47332,107.42256,734.90644c-5.82851,3.36529-14.64539,3.73057-19.69307.81631L-230.0274,552.26569c-5.04768-2.91426-4.41453-8.00455,1.414-11.36957l532.4902-307.43339c5.82852-3.365,14.64513-3.73057,19.69281-.81631L641.32648,416.10348C646.37416,419.01774,645.74128,424.108,639.91277,427.47332Z" transform="translate(233.43505 -1.24371)"/><path class="cls-17" d="M105.83732,482.59167l119.314-68.886c4.66334-2.69244,4.66334-7.05748.00026-9.74992l-81.59017-47.10613c-4.66334-2.69245-12.224-2.69218-16.88734.00026L7.36009,425.73562c-4.66335,2.69242-4.66362,7.05774-.00028,9.74992L88.95,482.59167C93.61306,485.28411,101.174,485.28383,105.83732,482.59167Z" transform="translate(233.43505 -1.24371)"/><path class="cls-12" d="M7.36009,429.725l119.31377-68.88575c4.6636-2.69244,12.22452-2.69244,16.8876-.00028l81.59017,47.10615a7.31126,7.31126,0,0,1,2.93067,2.88011c1.23373-2.35469.29328-5.00823-2.93067-6.86954l-81.59017-47.10613c-4.66308-2.69245-12.224-2.69218-16.8876.00026L7.36009,425.73562c-3.22395,1.86129-4.16467,4.51484-2.93094,6.86981A7.30907,7.30907,0,0,1,7.36009,429.725Z" transform="translate(233.43505 -1.24371)"/><path class="cls-11" d="M-45.09018,590.24446l442.50006-255.4776a9.52611,9.52611,0,0,1,9.53338.00452L564.51638,425.9381a3.39753,3.39753,0,0,1-.00265,5.883l-442.2933,255.3582a9.5268,9.5268,0,0,1-9.52415.00106l-157.78567-91.051A3.39744,3.39744,0,0,1-45.09018,590.24446Z" transform="translate(233.43505 -1.24371)"/><path class="cls-12" d="M-45.08939,596.12935l1.58445.91451L397.40988,342.48132a9.52657,9.52657,0,0,1,9.53364.0045l155.98709,90.2493,1.58312-.91424a3.3972,3.3972,0,0,0,.00265-5.88278L406.94352,334.77138a9.5266,9.5266,0,0,0-9.53364-.00452L-45.09018,590.24446A3.39754,3.39754,0,0,0-45.08939,596.12935Z" transform="translate(233.43505 -1.24371)"/><polygon class="cls-5" points="756.714 418.477 371.22 641.042 386.49 649.858 771.985 427.293 756.714 418.477"/><polygon class="cls-5" points="716.097 395.026 349.691 606.571 364.961 615.387 731.367 403.843 716.097 395.026"/><polygon class="cls-5" points="322.331 622.367 288.11 642.125 303.38 650.941 337.601 631.184 322.331 622.367"/><polygon class="cls-5" points="352.556 651.818 328.727 665.576 343.997 674.392 367.826 660.634 352.556 651.818"/><polygon class="cls-5" points="690.646 380.332 262.659 627.431 277.929 636.247 705.917 389.149 690.646 380.332"/><polygon class="cls-5" points="665.196 365.638 237.209 612.737 252.479 621.553 680.466 374.455 665.196 365.638"/><polygon class="cls-5" points="639.745 350.945 211.758 598.043 227.028 606.859 655.015 359.761 639.745 350.945"/></g></g><path class="cls-18" d="M489.086,864.01619,857.20791,651.481a4.3848,4.3848,0,0,0-1.31376-2.66164L486.42753,862.13109Z" transform="translate(233.43505 -1.24371)"/><path class="cls-18" d="M473.49638,159.2461,107.27358,370.68485l2.65873,1.88511L475.73208,161.37549A3.56269,3.56269,0,0,0,473.49638,159.2461Z" transform="translate(233.43505 -1.24371)"/><path class="cls-19" d="M855.29239,648.33158,609.331,506.32586a1.78309,1.78309,0,0,0-.31572-.10866l.01375-.06584L583.71082,479.2701,475.8886,161.75835c-.47273-1.392-1.64214-2.53182-2.61111-2.5453l-5.14242-.07324a.98436.98436,0,0,0-.56213.16128l-.00291-.00767L106.13167,368.08482,220.94045,690.59411l21.40834,26.16423,51.69974,31.26223,159.271,90.63674,41.91062,29.71527L856.67278,659.58384h0l.00423-.00238-.00052-.00053a1.37347,1.37347,0,0,0,.56817-1.26115v-6.6061A4.31624,4.31624,0,0,0,855.29239,648.33158Z" transform="translate(233.43505 -1.24371)"/><path class="cls-20" d="M493.80776,857.15153,247.84656,715.14581a1.7905,1.7905,0,0,0-.31568-.10867l.01375-.06583-25.31818-26.88126L114.404,370.57828c-.47273-1.392-1.64188-2.5318-2.61087-2.54555l-5.14243-.073c-.969-.01348-1.37193,1.10384-.89893,2.49613L213.57422,687.96737c.47247,1.392,1.64161,2.53182,2.61087,2.54557l1.23764,1.3484a4.88652,4.88652,0,0,0,1.32855,3.28639L242.0421,720.536c.88545.965,1.88194,1.27647,2.51992.89206l1.332,1.45124a4.31533,4.31533,0,0,0,1.95253,3.38184l245.9612,142.006c1.07849.62238,1.95254.11765,1.95254-1.12737v-6.6061A4.3157,4.3157,0,0,0,493.80776,857.15153Z" transform="translate(233.43505 -1.24371)"/><polygon class="cls-21" points="481.282 713.902 842.45 504.973 817.146 478.026 455.662 686.846 481.282 713.902"/><polygon class="cls-22" points="459.861 687.181 441.568 397.23 803.052 188.41 821.346 478.361 459.861 687.181"/><polygon class="cls-23" points="463.04 687.841 494.194 427.96 855.678 219.14 824.525 479.021 463.04 687.841"/><polygon class="cls-24" points="466.359 689.35 545.666 470.339 907.15 261.519 827.843 480.53 466.359 689.35"/><polygon class="cls-25" points="469.68 691.647 593.844 522.606 955.329 313.786 831.165 482.827 469.68 691.647"/><polygon class="cls-26" points="472.866 694.636 636.728 582.589 998.212 373.769 834.351 485.816 472.866 694.636"/><polygon class="cls-27" points="837.268 489.372 1034.019 438.975 672.534 647.795 475.784 698.191 837.268 489.372"/><polygon class="cls-28" points="839.797 493.347 1061.26 506.695 699.776 715.515 478.312 702.167 839.797 493.347"/><polygon class="cls-29" points="841.831 497.577 1078.805 574.115 717.32 782.935 480.347 706.397 841.831 497.577"/><polygon class="cls-30" points="843.287 501.885 1085.923 638.432 724.438 847.252 481.802 710.705 843.287 501.885"/><polygon class="cls-31" points="818.44 478.578 456.955 687.397 389.974 379.426 751.458 170.606 818.44 478.578 818.44 478.578"/></svg>