<?xml version="1.0" encoding="iso-8859-1"?>
<!-- Generator: Adobe Illustrator 19.0.0, SVG Export Plug-In . SVG Version: 6.00 Build 0)  -->
<svg version="1.1" id="Capa_1" xmlns="http://www.w3.org/2000/svg" xmlns:xlink="http://www.w3.org/1999/xlink" x="0px" y="0px"
	 viewBox="0 0 512 512" style="enable-background:new 0 0 512 512;" xml:space="preserve">
<path style="fill:#EDEBED;" d="M503.742,129.853H8.258c-4.561,0-8.258,3.698-8.258,8.258v148.645c0,4.561,3.697,8.258,8.258,8.258
	h495.484c4.561,0,8.258-3.697,8.258-8.258V138.111C512,133.551,508.303,129.853,503.742,129.853z"/>
<path style="fill:#DBD9DC;" d="M90.839,270.24c-36.486,0-66.065-29.578-66.065-66.065v-74.323H8.258
	c-4.561,0-8.258,3.697-8.258,8.258v148.645c0,4.561,3.697,8.258,8.258,8.258h495.484c4.561,0,8.258-3.697,8.258-8.258V270.24H90.839
	z"/>
<path style="fill:#99E7FF;" d="M355.097,295.015h148.645c4.561,0,8.258-3.697,8.258-8.258V138.111c0-4.561-3.697-8.258-8.258-8.258
	H355.097c-4.561,0-8.258,3.697-8.258,8.258v148.645C346.839,291.317,350.536,295.015,355.097,295.015z"/>
<path style="fill:#FFFFFF;" d="M476.548,247.885l-20.976-20.976c4.327-6.528,6.879-14.333,6.879-22.734
	c0-22.766-18.524-41.29-41.29-41.29c-22.766,0-41.29,18.524-41.29,41.29s18.524,41.29,41.29,41.29
	c8.401,0,16.206-2.552,22.734-6.879l20.976,20.976c1.613,1.613,3.726,2.419,5.839,2.419c2.113,0,4.226-0.806,5.839-2.419
	C479.774,256.337,479.774,251.111,476.548,247.885z M396.387,204.176c0-13.661,11.113-24.774,24.774-24.774
	s24.774,11.113,24.774,24.774s-11.113,24.774-24.774,24.774S396.387,217.837,396.387,204.176z"/>
<path style="fill:#4B3F4E;" d="M33.032,270.24c-4.565,0-8.258-3.698-8.258-8.258v-99.097c0-4.56,3.694-8.258,8.258-8.258
	s8.258,3.698,8.258,8.258v99.097C41.29,266.542,37.597,270.24,33.032,270.24z"/>
<path style="fill:#5D5360;" d="M141.228,311.854l-59.469-51.668c-2.902-2.522-7.423-0.455-7.415,3.39l0.174,78.779
	c0.009,4.036,4.934,6.002,7.719,3.08l16.855-17.682l22.665,49.572c1.387,3.032,4.379,4.823,7.516,4.823
	c1.145,0,2.315-0.238,3.427-0.746c4.145-1.899,5.968-6.798,4.072-10.948l-22.663-49.567l24.396-1.18
	C142.539,319.512,144.275,314.501,141.228,311.854z"/>
<path style="fill:#66DBFF;" d="M429.419,270.24c-31.925,0-57.806-25.881-57.806-57.806v-82.581h-16.516
	c-4.561,0-8.258,3.697-8.258,8.258v148.645c0,4.561,3.697,8.258,8.258,8.258h148.645c4.561,0,8.258-3.697,8.258-8.258V270.24
	H429.419z"/>
<g>
</g>
<g>
</g>
<g>
</g>
<g>
</g>
<g>
</g>
<g>
</g>
<g>
</g>
<g>
</g>
<g>
</g>
<g>
</g>
<g>
</g>
<g>
</g>
<g>
</g>
<g>
</g>
<g>
</g>
</svg>
