<svg id="Layer_1" enable-background="new 0 0 511.949 511.949" height="512" viewBox="0 0 511.949 511.949" width="512" xmlns="http://www.w3.org/2000/svg"><g><path d="m242.196 303.688c-16.193 16.193-7.443 7.445-45.26 45.25-3.141 3.121-8.18 3.12-11.32 0l-22.62-22.62c-3.12-3.13-3.12-8.19 0-11.32 37.652-37.664 28.55-28.56 45.25-45.26 3.121-3.121 8.203-3.117 11.32 0l22.63 22.63c3.12 3.12 3.117 8.203 0 11.32z" fill="#edebfd"/><path d="m242.196 292.367c-24.908-24.908-23.14-23.29-24.355-23.953-3.31-1.806-7.162-1.109-9.595 1.324l-13.66 13.66 8.634 8.634c6.249 6.249 6.248 16.38-.001 22.629l-20.282 20.278c-3.14 3.12-8.179 3.121-11.319.001l13.999 13.999c3.141 3.121 8.18 3.12 11.32 0 29.097-29.09-36.486 36.496 45.26-45.25 3.077-3.079 3.161-8.159-.001-11.322z" fill="#d2d2fc"/><path d="m462.816 286.718c-54.795 54.794-136.618 63.114-199.63 28.53-7.742 4.015-17.754 2.979-24.56-3.81l-38.13-38.13c-6.79-6.807-7.824-16.82-3.81-24.56-35.86-65.24-24.46-146.62 28.53-199.63 65.51-65.49 172.09-65.49 237.6 0 65.49 65.51 65.49 172.09 0 237.6z" fill="#7acef9"/><circle cx="344.016" cy="167.918" fill="#edebfd" r="128"/><path d="m434.526 77.408c-28.467-28.467-67.802-41.265-106.51-36.428 27.261 3.406 53.628 15.547 74.51 36.428 49.91 49.91 49.91 131.11 0 181.02-20.882 20.882-47.249 33.022-74.51 36.428 38.69 4.834 78.03-7.948 106.51-36.428 49.91-49.91 49.91-131.111 0-181.02z" fill="#d2d2fc"/><path d="m208.256 360.257-139.38 139.36c-4.225 4.44-9.903 8.174-16.28 10.28-25.941 8.583-52.58-10.853-52.58-37.98 0-10.38 4.013-20.227 11.04-27.6.52-.531-10.353 10.355 140.62-140.64 3.121-3.121 8.203-3.117 11.32 0l45.26 45.26c3.12 3.121 3.117 8.204 0 11.32z" fill="#e48c9b"/><path d="m208.256 348.938-45.26-45.26c-3.121-3.121-8.203-3.117-11.32 0l-11.839 11.841 33.419 33.419c3.121 3.121 3.117 8.203 0 11.32-152.11 152.087-142.083 143.392-150.743 147.62 15.701 7.672 34.555 4.15 46.363-8.26l139.38-139.36c3.12-3.121 3.117-8.204 0-11.32z" fill="#cc5b6f"/><path d="m462.816 49.117c-37.751-37.74-89.14-53.726-138.449-47.97 83.185 10.046 147.649 80.875 147.649 166.77 0 85.995-64.616 156.888-147.942 166.803 50.985 6.068 101.751-11.012 138.742-48.003 65.49-65.509 65.49-172.089 0-237.6z" fill="#6cb9e7"/></g></svg>