<svg id="Capa_1" enable-background="new 0 0 512 512" height="512" viewBox="0 0 512 512" width="512" xmlns="http://www.w3.org/2000/svg"><g><path d="m478.32 129c-24.41 65.39-90.9 154.65-214.77 154.65-114.76 0-195.83-67.4-229.87-154.65 44.12-77.07 127.16-129 222.32-129s178.2 51.93 222.32 129z" fill="#3b2e8e"/><path d="m512 256c0 94.4-51.1 176.86-127.14 221.24h-257.72c-76.04-44.38-127.14-126.84-127.14-221.24 0-46.22 12.25-89.57 33.68-127 44.12 77.07 127.16 129 222.32 129s178.21-51.93 222.32-129c21.43 37.43 33.68 80.78 33.68 127z" fill="#220f7c"/><g><path d="m270 204.72-14 2.38-73.66 25.65-16.43 101.55h-19.44v-68.09c0-43.31 35.24-78.55 78.55-78.55h30.98z" fill="#e0f8fc"/><path d="m365.53 266.21v68.09h-19.44l-17.87-104.88-72.22-22.32v-19.44h30.98c43.31 0 78.55 35.24 78.55 78.55z" fill="#bdddf9"/><path d="m256 207.1 16.598 9.549-16.598 9.891h-30.98c-21.88 0-39.68 17.79-39.68 39.67v68.09h-19.43v-68.09c0-32.65 26.46-59.11 59.11-59.11z" fill="#fff"/><path d="m346.09 266.21v68.09h-19.43v-68.09c0-21.88-17.81-39.67-39.68-39.67h-30.98v-19.44h30.98c32.65 0 59.11 26.46 59.11 59.11z" fill="#e0f8fc"/><path d="m235.77 285.95-42.15 218.39c-23.64-5.91-45.96-15.12-66.48-27.1v-94.1c0-.81.01-1.62.02-2.42.97-52.77 44.65-94.77 97.43-94.77z" fill="#ffe702"/><path d="m320.43 398.97-64.43 113.03c-21.03 0-41.47-2.54-61.02-7.32-.45-.11-.91-.22-1.36-.34v-121.2c0-.81 0-1.62.01-2.42.42-52.77 19.31-94.77 42.14-94.77h20.23z" fill="#ffbf03"/><path d="m384.86 383.14v94.1c-37.85 22.1-81.88 34.76-128.86 34.76v-226.05h31.41c52.78 0 96.46 42 97.43 94.77.01.8.02 1.61.02 2.42z" fill="#ff9907"/><path d="m256 350.47 14 50.121-14 46.889h-24.78l8.81-37.51c-9.52-5.51-15.93-15.81-15.93-27.6 0-17.62 14.28-31.9 31.9-31.9z" fill="#3b2e8e"/></g><path d="m271.97 409.97 8.81 37.51h-24.78v-97.01c17.62 0 31.9 14.28 31.9 31.9 0 11.79-6.41 22.09-15.93 27.6z" fill="#220f7c"/><path d="m256 76.8 33.379 36.655-33.379 36.655h-90.05c-20.24 0-36.66-16.41-36.66-36.65 0-10.12 4.11-19.29 10.74-25.92 6.63-6.64 15.8-10.74 25.92-10.74z" fill="#fff"/><path d="m384.86 113.46c0 10.12-4.1 19.28-10.74 25.92-6.63 6.63-15.8 10.73-25.92 10.73h-92.2v-73.31h92.2c20.25 0 36.66 16.41 36.66 36.66z" fill="#e0f8fc"/><g><path d="m362.097 112.517-2.21-9.842-13.838 3.107v-12.708h-10.088v12.708l-13.838-3.107-2.21 9.842 12.911 2.899-8.401 12.928 8.458 5.497 8.124-12.501 8.123 12.501 8.459-5.497-8.401-12.928z" fill="#220f7c"/><path d="m305.427 112.517-2.21-9.842-13.838 3.107v-12.708h-10.088v12.708l-13.838-3.107-2.21 9.842 12.911 2.899-8.401 12.928 8.458 5.497 8.124-12.501 8.123 12.501 8.459-5.497-8.401-12.928z" fill="#220f7c"/><g fill="#3b2e8e"><path d="m248.757 112.517-2.21-9.842-13.838 3.107v-12.708h-10.088v12.708l-13.838-3.107-2.21 9.842 12.911 2.899-8.401 12.928 8.458 5.497 8.124-12.501 8.123 12.501 8.459-5.497-8.401-12.928z"/><path d="m192.087 112.517-2.21-9.842-13.838 3.107v-12.708h-10.088v12.708l-13.838-3.107-2.21 9.842 12.911 2.899-8.401 12.928 8.458 5.497 8.124-12.501 8.123 12.501 8.459-5.497-8.401-12.928z"/></g></g></g></svg>