<svg id="Capa_1" enable-background="new 0 0 512 512" height="512" viewBox="0 0 512 512" width="512" xmlns="http://www.w3.org/2000/svg" xmlns:xlink="http://www.w3.org/1999/xlink"><linearGradient id="SVGID_1_" gradientUnits="userSpaceOnUse" x1="256" x2="256" y1="512" y2="0"><stop offset="0" stop-color="#c3ffe8"/><stop offset=".9973" stop-color="#f0fff4"/></linearGradient><linearGradient id="SVGID_2_" gradientUnits="userSpaceOnUse" x1="256" x2="256" y1="398" y2="114"><stop offset="0" stop-color="#9cffac"/><stop offset="1" stop-color="#00b59c"/></linearGradient><g><g><circle cx="256" cy="256" fill="url(#SVGID_1_)" r="256"/></g><g><g><path d="m263.39 206.702c-1.639-2.453-4.389-3.935-7.338-3.952-3.296.269-5.725 1.439-7.39 3.874-37.073 54.273-37.073 54.723-37.073 58.251 0 4.906 3.973 8.875 8.882 8.875h8.24l-8.214 114.734c-.182 2.461.677 4.88 2.351 6.691 1.683 1.803 4.042 2.825 6.506 2.825h53.121c2.463 0 4.814-1.023 6.497-2.825 1.683-1.794 2.533-4.212 2.359-6.674l-8.041-114.751h8.24c7.096 0 11.311-7.912 7.39-13.798zm86.074-37.823c-10.695-32.596-41.011-54.879-75.699-54.879-26.69 0-51.533 13.547-66.219 35.717-26.89-2.375-52.878 14.11-62.636 39.66-24.053 9.17-39.91 31.825-39.91 57.748 0 34.252 27.896 62.125 62.176 62.125h41.186l1.43-19.986c-9.394-4.117-15.969-13.503-15.969-24.389 0-9.456 0-9.456 40.161-68.261 3.27-4.776 9.49-10.652 20.619-11.553h.026c10.4 0 18.615 4.429 23.533 11.787l35.538 53.259c9.301 13.961 3.506 32.629-11.519 39.183l1.4 19.96h32.36c39.181 0 71.059-31.851 71.059-71 0-34.295-24.331-63.122-57.536-69.371z" fill="#3475CB"/></g></g></g></svg>
